<svg width="20" height="20" viewBox="0 0 20 20" fill="none" xmlns="http://www.w3.org/2000/svg">
<path d="M18.1818 0H1.8182C0.815412 0 0 0.815412 0 1.8182V18.1818C0 19.1846 0.815412 20 1.8182 20H18.1818C19.1846 20 20 19.1846 20 18.1818V1.8182C20 0.815412 19.1846 0 18.1818 0ZM15.7853 5.76661L13.2142 8.33762C13.1255 8.42638 13.0091 8.47079 12.8928 8.47079C12.7766 8.47079 12.6603 8.42638 12.5715 8.33762C11.6685 7.43468 10.3267 7.1377 9.12099 7.42211L8.141 5.26632C8.038 5.03817 7.76903 4.93607 7.53908 5.04081C7.31046 5.1447 7.20972 5.41411 7.31357 5.64273L8.26854 7.74354C7.96564 7.90202 7.67668 8.08944 7.42854 8.33758C7.25097 8.51515 6.96333 8.51515 6.7858 8.33758L4.21479 5.76657C4.03722 5.589 4.03722 5.30135 4.21479 5.12382C5.75996 3.57823 7.81471 2.72727 10 2.72727C12.1853 2.72727 14.2401 3.57823 15.7853 5.12387C15.9628 5.3014 15.9628 5.58904 15.7853 5.76661Z" fill="black"/>
</svg>
