<svg width="18" height="24" viewBox="0 0 18 24" fill="none" xmlns="http://www.w3.org/2000/svg">
<path d="M0.420898 23.6846H17.5799V0.31543H0.420898V23.6846ZM7.21328 13.5983V12.0289H13.9308V13.5983H7.21328ZM13.9308 15.6316V17.201H7.21328V15.6316H13.9308ZM7.21328 9.96561V8.3962H13.9308V9.96561H7.21328ZM7.21328 6.33288V4.76347H13.9308V6.33288H7.21328ZM4.53063 13.6288C4.09726 13.6288 3.74592 13.2774 3.74592 12.8441V12.7831C3.74592 12.3497 4.09726 11.9984 4.53063 11.9984C4.96399 11.9984 5.31534 12.3497 5.31534 12.7831V12.8441C5.31534 13.2774 4.96399 13.6288 4.53063 13.6288ZM5.31534 16.3858V16.4468C5.31534 16.8801 4.96399 17.2315 4.53063 17.2315C4.09726 17.2315 3.74592 16.8801 3.74592 16.4468V16.3858C3.74592 15.9525 4.09726 15.6011 4.53063 15.6011C4.96399 15.6011 5.31534 15.9525 5.31534 16.3858ZM4.53063 9.99611C4.09726 9.99611 3.74592 9.64477 3.74592 9.2114V9.15041C3.74592 8.71704 4.09726 8.3657 4.53063 8.3657C4.96399 8.3657 5.31534 8.71704 5.31534 9.15041V9.2114C5.31534 9.64477 4.96399 9.99611 4.53063 9.99611ZM4.53063 6.36338C4.09726 6.36338 3.74592 6.01204 3.74592 5.57868V5.51768C3.74592 5.08431 4.09726 4.73297 4.53063 4.73297C4.96399 4.73297 5.31534 5.08431 5.31534 5.51768V5.57868C5.31534 6.01204 4.96399 6.36338 4.53063 6.36338Z" fill="black"/>
</svg>
