<svg width="30" height="30" viewBox="0 0 30 30" fill="none" xmlns="http://www.w3.org/2000/svg">
<g clip-path="url(#clip0_795_2878)">
<path d="M4.64355 13.9646H6.19763V15.5182H4.64355V13.9646Z" fill="black"/>
<path d="M4.64355 18.6252H6.19763V20.1787H4.64355V18.6252Z" fill="black"/>
<path d="M4.64355 9.30396H6.19763V10.8576H4.64355V9.30396Z" fill="black"/>
<path d="M16.0355 5.67898C16.3215 5.67898 16.5534 5.44711 16.5534 5.16125V3.08971C16.5534 2.80386 16.3215 2.57199 16.0355 2.57199H12.8767C12.7499 2.5638 12.6293 2.51557 12.5318 2.43415C12.5143 2.41711 12.4979 2.39875 12.4831 2.37928C12.4588 2.35052 12.4375 2.3191 12.42 2.28569C12.4085 2.26158 12.3988 2.2368 12.3908 2.21158C12.3826 2.19365 12.3753 2.17529 12.3692 2.15671C12.1722 1.19251 11.324 0.5 10.3396 0.5C9.35553 0.5 8.50726 1.19251 8.31035 2.15671C8.30438 2.17308 8.29752 2.18923 8.28956 2.20472C8.27982 2.23768 8.26655 2.26954 8.24973 2.29963C8.20283 2.38526 8.13225 2.45561 8.04662 2.50252C8.01654 2.51889 7.9849 2.53216 7.95193 2.5419C7.92096 2.55119 7.88888 2.55761 7.85657 2.56115C7.83865 2.56579 7.82029 2.56933 7.8017 2.57199H4.64294C4.35687 2.57199 4.125 2.80386 4.125 3.08971V5.16125C4.125 5.44711 4.35687 5.67898 4.64294 5.67898H16.0355ZM8.26787 3.60765H14.9998C15.2859 3.60765 15.5177 3.83952 15.5177 4.12559C15.5177 4.41145 15.2859 4.64331 14.9998 4.64331H8.26787C7.9818 4.64331 7.74993 4.41145 7.74993 4.12559C7.74993 3.83952 7.9818 3.60765 8.26787 3.60765ZM5.67861 3.60765H6.19655C6.4824 3.60765 6.71427 3.83952 6.71427 4.12559C6.71427 4.41145 6.4824 4.64331 6.19655 4.64331H5.67861C5.39253 4.64331 5.16066 4.41145 5.16066 4.12559C5.16066 3.83952 5.39253 3.60765 5.67861 3.60765Z" fill="black"/>
<path d="M19.2462 16.0464C19.2597 16.0464 19.269 16.0572 19.2818 16.0608C19.4208 16.0479 19.5606 16.038 19.7024 16.038H20.8241H20.8354C21.1064 16.0386 21.375 16.086 21.6299 16.1782C21.6817 16.1975 21.7297 16.2249 21.7799 16.2473C21.7222 15.8231 21.6253 15.4054 21.4905 14.9992C21.0706 13.7722 19.9217 12.944 18.6247 12.9334H18.6158C18.2833 12.9323 17.951 12.9507 17.6207 12.9889C17.5539 13.7056 17.53 15.703 19.2462 16.0464Z" fill="black"/>
<path d="M20.1791 12.2293V4.12561C20.1791 3.83953 19.9472 3.60767 19.6612 3.60767H17.5898V4.64333H18.1078C18.6797 4.64333 19.1434 5.10706 19.1434 5.67899V11.945C19.4994 11.9943 19.8477 12.0899 20.1791 12.2293Z" fill="black"/>
<path d="M2.57252 28.4642C2.00037 28.4642 1.53664 28.0007 1.53664 27.4286V5.67899C1.53664 5.10706 2.00037 4.64333 2.57252 4.64333H3.09024V3.60767H1.01892C0.732845 3.60767 0.500977 3.83953 0.500977 4.12561V28.9822C0.500977 29.2682 0.732845 29.5001 1.01892 29.5001H18.315C17.8537 29.2061 17.4289 28.8583 17.0494 28.4642H2.57252Z" fill="black"/>
<path d="M17.7771 16.4814C16.5443 15.4864 16.4516 13.599 16.6337 12.5337C16.6815 12.3208 16.77 11.9487 18.1077 11.9009V5.67896H17.4944C17.2758 6.29756 16.6921 6.71196 16.0361 6.71462H4.64359C3.98759 6.71196 3.40394 6.29756 3.18534 5.67896H2.57227V27.4285H16.2277C15.423 26.1971 14.9965 24.757 15.0004 23.2859V21.0435C14.9761 19.1167 16.0545 17.3449 17.7771 16.4814ZM8.78624 9.82183H16.0361C16.3222 9.82183 16.554 10.0537 16.554 10.3395C16.554 10.6256 16.3222 10.8575 16.0361 10.8575H8.78624C8.50039 10.8575 8.26852 10.6256 8.26852 10.3395C8.26852 10.0537 8.50039 9.82183 8.78624 9.82183ZM7.23286 24.8393C7.23286 25.4114 6.76912 25.8751 6.1972 25.8751H4.64359C4.07166 25.8751 3.60793 25.4114 3.60793 24.8393V23.2859C3.60793 22.7137 4.07166 22.2502 4.64359 22.2502H6.1972C6.76912 22.2502 7.23286 22.7137 7.23286 23.2859V24.8393ZM7.23286 20.1787C7.23286 20.7508 6.76912 21.2143 6.1972 21.2143H4.64359C4.07166 21.2143 3.60793 20.7508 3.60793 20.1787V18.6253C3.60793 18.0531 4.07166 17.5894 4.64359 17.5894H6.1972C6.76912 17.5894 7.23286 18.0531 7.23286 18.6253V20.1787ZM7.23286 15.5181C7.23286 16.09 6.76912 16.5537 6.1972 16.5537H4.64359C4.07166 16.5537 3.60793 16.09 3.60793 15.5181V13.9645C3.60793 13.3925 4.07166 12.9288 4.64359 12.9288H6.1972C6.76912 12.9288 7.23286 13.3925 7.23286 13.9645V15.5181ZM7.23286 10.8575C7.23286 11.4294 6.76912 11.8932 6.1972 11.8932H4.64359C4.07166 11.8932 3.60793 11.4294 3.60793 10.8575V9.30388C3.60793 8.73196 4.07166 8.26822 4.64359 8.26822H6.1972C6.76912 8.26822 7.23286 8.73196 7.23286 9.30388V10.8575ZM13.4471 24.8393H8.78624C8.50039 24.8393 8.26852 24.6076 8.26852 24.3215C8.26852 24.0355 8.50039 23.8036 8.78624 23.8036H13.4471C13.7329 23.8036 13.9648 24.0355 13.9648 24.3215C13.9648 24.6076 13.7329 24.8393 13.4471 24.8393ZM13.4471 20.1787H8.78624C8.50039 20.1787 8.26852 19.9468 8.26852 19.6609C8.26852 19.3749 8.50039 19.143 8.78624 19.143H13.4471C13.7329 19.143 13.9648 19.3749 13.9648 19.6609C13.9648 19.9468 13.7329 20.1787 13.4471 20.1787ZM14.4827 15.5181H8.78624C8.50039 15.5181 8.26852 15.2862 8.26852 15.0004C8.26852 14.7143 8.50039 14.4824 8.78624 14.4824H14.4827C14.7686 14.4824 15.0004 14.7143 15.0004 15.0004C15.0004 15.2862 14.7686 15.5181 14.4827 15.5181Z" fill="black"/>
<path d="M25.8354 17.0717H24.692C24.5513 17.0735 24.4117 17.0965 24.2778 17.1394L24.2528 17.1467C23.6522 17.3903 23.2665 17.982 23.286 18.63L23.2566 18.6895C23.153 17.1691 23.3172 14.0039 26.1374 12.339C26.3757 12.1903 26.4521 11.8786 26.3091 11.6366C26.1664 11.3945 25.8567 11.3107 25.6113 11.4474C22.6076 13.22 22.1753 16.4038 22.209 18.2751C22.1127 17.7647 21.7605 17.3397 21.2768 17.1505C21.1375 17.1005 20.9905 17.0742 20.8423 17.0728H19.7011C17.6804 17.0717 16.0361 18.8546 16.0361 21.0436V23.2859C16.0361 26.712 18.6223 29.5001 21.8003 29.5001H23.736C26.914 29.5001 29.5002 26.7131 29.5002 23.2859V21.0436C29.5002 18.8546 27.8561 17.0717 25.8354 17.0717ZM19.3106 19.113C19.2531 19.1358 18.1077 19.5707 18.1077 21.2144C18.1077 21.5005 17.8758 21.7323 17.5897 21.7323C17.3037 21.7323 17.072 21.5005 17.072 21.2144C17.072 18.7977 18.9015 18.1592 18.9796 18.1337C19.1551 18.0744 19.3487 18.1132 19.4876 18.2355C19.6265 18.3576 19.6898 18.5446 19.6535 18.726C19.6173 18.9074 19.4869 19.0559 19.3117 19.1152L19.3106 19.113ZM22.2503 19.0462C22.2572 19.1176 22.2638 19.184 22.2707 19.2462C22.2603 19.2125 22.2534 19.178 22.2503 19.1431V19.0462Z" fill="black"/>
<path d="M4.64355 23.2859H6.19763V24.8393H4.64355V23.2859Z" fill="black"/>
</g>
<defs>
<clipPath id="clip0_795_2878">
<rect width="29" height="29" fill="white" transform="translate(0.5 0.5)"/>
</clipPath>
</defs>
</svg>
