<svg width="18" height="20" viewBox="0 0 18 20" fill="none" xmlns="http://www.w3.org/2000/svg">
<path d="M15.5625 2.5H12.125V1.875C12.125 0.839453 11.2855 0 10.25 0H7.75C6.71445 0 5.875 0.839453 5.875 1.875V2.5H2.4375C1.57457 2.5 0.875 3.19957 0.875 4.0625V5.3125C0.875 5.6577 1.1548 5.9375 1.5 5.9375H16.5C16.8452 5.9375 17.125 5.6577 17.125 5.3125V4.0625C17.125 3.19957 16.4254 2.5 15.5625 2.5ZM7.125 1.875C7.125 1.53047 7.40547 1.25 7.75 1.25H10.25C10.5945 1.25 10.875 1.53047 10.875 1.875V2.5H7.125V1.875Z" fill="#FB3939"/>
<path d="M2.06109 7.1875C1.94956 7.1875 1.8607 7.2807 1.86601 7.39211L2.38164 18.2141C2.42929 19.2156 3.25195 20 4.25429 20H13.7457C14.748 20 15.5707 19.2156 15.6184 18.2141L16.134 7.39211C16.1393 7.2807 16.0504 7.1875 15.9389 7.1875H2.06109ZM11.5 8.75C11.5 8.40469 11.7797 8.125 12.125 8.125C12.4703 8.125 12.75 8.40469 12.75 8.75V16.875C12.75 17.2203 12.4703 17.5 12.125 17.5C11.7797 17.5 11.5 17.2203 11.5 16.875V8.75ZM8.375 8.75C8.375 8.40469 8.65469 8.125 9 8.125C9.34531 8.125 9.625 8.40469 9.625 8.75V16.875C9.625 17.2203 9.34531 17.5 9 17.5C8.65469 17.5 8.375 17.2203 8.375 16.875V8.75ZM5.25 8.75C5.25 8.40469 5.52968 8.125 5.875 8.125C6.22031 8.125 6.5 8.40469 6.5 8.75V16.875C6.5 17.2203 6.22031 17.5 5.875 17.5C5.52968 17.5 5.25 17.2203 5.25 16.875V8.75Z" fill="#FB3939"/>
</svg>
