<svg width="20" height="20" viewBox="0 0 20 20" fill="none" xmlns="http://www.w3.org/2000/svg">
<g clip-path="url(#clip0_120_2894)">
<path d="M11.2861 17.0008C3.04913 8.76399 11.2386 16.9532 3.0014 8.71617C2.77249 8.48719 2.40191 8.48719 2.17296 8.71617L1.34452 9.54465C0.659248 10.2299 0.659248 11.3448 1.34452 12.03L1.75878 12.4442L1.34452 12.8585C0.659287 13.5438 0.659287 14.6586 1.34456 15.3439L4.65839 18.6578C5.34367 19.343 6.45851 19.343 7.14378 18.6578L7.55796 18.2435L7.97222 18.6578C8.6575 19.343 9.77234 19.343 10.4576 18.6578L11.2861 17.8293C11.515 17.6003 11.515 17.2297 11.2861 17.0008Z" fill="#1D81AC"/>
<path d="M18.6555 7.97029L18.2413 7.55603L18.6555 7.14177C19.3408 6.45653 19.3408 5.34161 18.6555 4.65641L15.3417 1.34257C14.6564 0.657294 13.5416 0.657294 12.8563 1.34257L12.442 1.75679L12.0278 1.34257C11.3425 0.657294 10.2277 0.657294 9.54241 1.34257L8.71397 2.17101C8.48499 2.39999 8.48499 2.77058 8.71397 2.99945L16.9986 11.2841C17.2275 11.513 17.5981 11.513 17.8271 11.2841L18.6555 10.4556C19.3408 9.77037 19.3408 8.65548 18.6555 7.97029Z" fill="#1D81AC"/>
<path d="M19.4838 0.513991C18.7986 -0.171324 17.6837 -0.171324 16.9985 0.513952L16.5842 0.928172L19.0696 3.41357L19.4838 2.99931C20.1691 2.31411 20.1691 1.19919 19.4838 0.513991Z" fill="#1D81AC"/>
<path d="M10.7851 6.72754L6.72961 10.7874L9.21501 13.2728L13.2704 9.21297L10.7851 6.72754Z" fill="#1D81AC"/>
<path d="M0.930335 16.5864L0.516154 17.0006C-0.169122 17.6859 -0.169122 18.8007 0.516154 19.486C1.20135 20.1713 2.31628 20.1713 3.00147 19.486L3.41573 19.0718L0.930335 16.5864Z" fill="#1D81AC"/>
</g>
<defs>
<clipPath id="clip0_120_2894">
<rect width="20" height="20" fill="white"/>
</clipPath>
</defs>
</svg>
