<svg width="25" height="25" viewBox="0 0 25 25" fill="none" xmlns="http://www.w3.org/2000/svg">
<path d="M12.5 24.9999C19.4035 24.9999 24.9999 19.4035 24.9999 12.5C24.9999 5.59643 19.4035 0 12.5 0C5.59643 0 0 5.59643 0 12.5C0 19.4035 5.59643 24.9999 12.5 24.9999Z" fill="url(#paint0_linear_137_2890)" fill-opacity="0.73"/>
<path d="M19.5751 5.16149C18.725 4.31143 17.5909 3.84326 16.3816 3.84326C15.1723 3.84326 14.0382 4.31143 13.1882 5.16149L3.80029 14.5493L4.83966 15.5887L14.2275 6.20081C14.8 5.62834 15.565 5.31311 16.3816 5.31311C17.1982 5.31311 17.9632 5.62834 18.5357 6.20081C19.1082 6.77323 19.4233 7.53823 19.4233 8.35484C19.4233 9.17146 19.1081 9.93646 18.5357 10.5089L18.5162 10.5285L10.082 18.9626C9.74705 19.2976 9.29919 19.482 8.82087 19.482C8.34254 19.482 7.89468 19.2976 7.55981 18.9626C7.2249 18.6277 7.04047 18.1799 7.04047 17.7016C7.04047 17.2232 7.2249 16.7754 7.55981 16.4405L12.8189 11.1813L15.8662 8.13404C16.0762 7.92403 16.4179 7.92408 16.6279 8.13404C16.7286 8.23482 16.7841 8.37003 16.7841 8.51491C16.7841 8.65973 16.7286 8.79494 16.6279 8.89572L8.74215 16.7815L9.78152 17.8208L17.6672 9.93514C18.0456 9.55676 18.2539 9.05241 18.2539 8.51495C18.2539 7.9774 18.0456 7.47305 17.6672 7.09472C17.2888 6.71635 16.7844 6.50799 16.247 6.50799C15.7095 6.50799 15.2051 6.71639 14.8268 7.09472L14.6332 7.28823L11.7795 10.1419L6.52035 15.4011C5.90784 16.0136 5.57048 16.8306 5.57048 17.7015C5.57048 18.5725 5.90784 19.3895 6.52035 20.002C7.13286 20.6146 7.94991 20.9519 8.82087 20.9519C9.69183 20.9519 10.5088 20.6146 11.1214 20.002L12.4063 18.7171L19.575 11.5484C20.4251 10.6983 20.8932 9.56424 20.8932 8.35494C20.8932 7.14565 20.4251 6.01155 19.5751 5.16149Z" fill="url(#paint1_linear_137_2890)"/>
<defs>
<linearGradient id="paint0_linear_137_2890" x1="3.66122" y1="3.66079" x2="21.3392" y2="21.3387" gradientUnits="userSpaceOnUse">
<stop stop-color="#2499FF" stop-opacity="0.71"/>
<stop offset="1" stop-color="#004DB1" stop-opacity="0.79"/>
</linearGradient>
<linearGradient id="paint1_linear_137_2890" x1="9.40794" y1="8.94124" x2="15.795" y2="15.3288" gradientUnits="userSpaceOnUse">
<stop stop-color="white"/>
<stop offset="0.31" stop-color="#FCFCFC"/>
<stop offset="0.573" stop-color="#F2F1F3"/>
<stop offset="0.818" stop-color="#E1E0E3"/>
<stop offset="1" stop-color="#CFCDD3"/>
</linearGradient>
</defs>
</svg>
