<svg width="26" height="26" viewBox="0 0 26 26" fill="none" xmlns="http://www.w3.org/2000/svg">
<g clip-path="url(#clip0_521_815)">
<path d="M13.4648 25.9847C15.4531 25.7022 17.196 23.6271 18.2928 20.5625C16.7073 20.2074 15.0894 20.0168 13.4648 19.9941V25.9847Z" fill="black"/>
<path d="M16.6414 25.4975C16.7589 25.4635 16.876 25.4292 16.9922 25.3916C17.0902 25.36 17.1869 25.326 17.2835 25.2922C17.3979 25.2527 17.5118 25.2121 17.6252 25.169C17.7219 25.1322 17.8176 25.0932 17.9136 25.0542C18.0243 25.0077 18.1348 24.9614 18.2441 24.9149C18.3397 24.8729 18.4345 24.8289 18.5293 24.7846C18.6367 24.734 18.7435 24.6825 18.8495 24.629C18.9425 24.5816 19.0353 24.5332 19.1283 24.4836C19.2325 24.4277 19.3359 24.3708 19.4387 24.3123C19.5317 24.2596 19.6214 24.2068 19.7119 24.1523C19.8126 24.0904 19.9129 24.0284 20.0125 23.9665C20.1017 23.9098 20.1906 23.8521 20.2784 23.7927C20.3764 23.7267 20.4731 23.6579 20.5693 23.5892C20.6557 23.5272 20.7417 23.4655 20.8261 23.4033C20.9192 23.3316 21.0145 23.2574 21.1077 23.183C21.1905 23.117 21.2731 23.0514 21.3546 22.9836C21.4474 22.9065 21.5363 22.8266 21.6264 22.7467C21.7053 22.6766 21.7847 22.6072 21.8619 22.5353C21.9506 22.4524 22.037 22.3667 22.1235 22.2816C22.1984 22.2076 22.2741 22.1348 22.3474 22.059C22.361 22.045 22.374 22.0298 22.388 22.0152C21.3745 21.4918 20.307 21.0809 19.2041 20.79C18.6305 22.6192 17.6098 24.2769 16.2344 25.6123C16.272 25.6026 16.3097 25.5946 16.3474 25.5849C16.4467 25.557 16.5443 25.5263 16.6414 25.4975Z" fill="black"/>
<path d="M25.9999 13.4756H20.4284C20.4073 15.651 20.0917 17.8135 19.4902 19.9042C20.7168 20.2319 21.9005 20.7029 23.0168 21.3075C24.8496 19.0986 25.8987 16.3444 25.9999 13.4756Z" fill="black"/>
<path d="M13.4648 12.5457H19.4994C19.4758 10.4472 19.1679 8.3616 18.5846 6.3457C16.9042 6.72892 15.1881 6.93357 13.4648 6.95626V12.5457Z" fill="black"/>
<path d="M13.4648 0.0366211V6.02716C15.0894 6.00424 16.7073 5.81388 18.2928 5.4588C17.196 2.39422 15.4531 0.319097 13.4648 0.0366211Z" fill="black"/>
<path d="M13.4648 19.065C15.1881 19.0879 16.9042 19.2926 18.5846 19.6758C19.1679 17.6599 19.4758 15.5741 19.4994 13.4756H13.4648V19.065Z" fill="black"/>
<path d="M23.0168 4.71387C21.9005 5.31852 20.7168 5.78954 19.4902 6.11717C20.0917 8.20795 20.4073 10.3704 20.4284 12.5458H25.9999C25.8985 9.67727 24.8494 6.92308 23.0168 4.71387Z" fill="black"/>
<path d="M22.3888 4.00904C22.3751 3.9952 22.3622 3.98023 22.3488 3.96593C22.2753 3.89015 22.1991 3.81709 22.1242 3.74335C22.038 3.65827 21.952 3.57228 21.8631 3.48969C21.7861 3.418 21.7065 3.35016 21.6275 3.27869C21.5375 3.19882 21.4474 3.11828 21.3548 3.04113C21.2745 2.97329 21.1921 2.9084 21.1105 2.84329C21.0174 2.76796 20.9221 2.69309 20.8264 2.62116C20.7425 2.55786 20.6574 2.4966 20.5718 2.43534C20.4747 2.36546 20.3772 2.29581 20.2782 2.22933C20.1913 2.17079 20.1031 2.11361 20.0148 2.05757C19.9143 1.99291 19.814 1.92961 19.7117 1.86835C19.6221 1.81458 19.5315 1.76148 19.4408 1.70998C19.3369 1.65054 19.2327 1.59291 19.1277 1.53664C19.0347 1.49013 18.9419 1.43953 18.8488 1.39302C18.742 1.33902 18.6342 1.28706 18.5237 1.23601C18.4307 1.19177 18.3363 1.14866 18.2405 1.10668C18.1305 1.0579 18.0193 1.01389 17.9084 0.967374C17.8126 0.928349 17.7173 0.889778 17.6207 0.853023C17.5079 0.809914 17.3936 0.769528 17.2792 0.730049C17.1826 0.696016 17.0859 0.662209 16.9879 0.630445C16.8717 0.592782 16.7556 0.558521 16.6362 0.524034C16.5396 0.495673 16.4425 0.466858 16.3447 0.440993C16.3072 0.430783 16.2691 0.422842 16.2314 0.413086C17.6068 1.74855 18.6274 3.40597 19.2012 5.23537C20.3052 4.9445 21.3743 4.53338 22.3888 4.00904Z" fill="black"/>
<path d="M0 12.5458H5.57147C5.59257 10.3704 5.90817 8.20795 6.50943 6.11717C5.28309 5.78977 4.09942 5.31875 2.98313 4.71387C1.15032 6.92285 0.101192 9.67727 0 12.5458Z" fill="black"/>
<path d="M12.535 25.9847V19.9941C10.9105 20.0171 9.29253 20.2074 7.70703 20.5625C8.80358 23.6271 10.5468 25.7022 12.535 25.9847Z" fill="black"/>
<path d="M12.5355 13.4756H6.50098C6.52457 15.5741 6.83223 17.6599 7.41579 19.6758C9.09613 19.2923 10.8121 19.0877 12.5355 19.065V13.4756Z" fill="black"/>
<path d="M12.535 0.0366211C10.5468 0.319097 8.80358 2.39422 7.70703 5.4588C9.29253 5.81411 10.9105 6.00447 12.535 6.02716V0.0366211Z" fill="black"/>
<path d="M12.5355 6.95626C10.8123 6.93357 9.09613 6.72892 7.41579 6.3457C6.83223 8.3616 6.52457 10.4472 6.50098 12.5457H12.5355V6.95626Z" fill="black"/>
<path d="M9.76461 0.412598C9.72695 0.422354 9.68928 0.430295 9.65162 0.440051C9.55315 0.46637 9.45604 0.495639 9.35803 0.524C9.24141 0.558033 9.12569 0.592293 9.00862 0.629503C8.90992 0.661494 8.81281 0.695527 8.7157 0.729334C8.60203 0.769493 8.48814 0.809425 8.3756 0.85208C8.27849 0.88929 8.18274 0.927861 8.08654 0.967339C7.97605 1.01385 7.86533 1.06036 7.75619 1.10665C7.66045 1.14862 7.56583 1.19264 7.471 1.23688C7.36368 1.28748 7.25681 1.33898 7.15086 1.39253C7.05783 1.43995 6.96481 1.4885 6.87201 1.53796C6.76787 1.59378 6.66463 1.65095 6.56208 1.70949C6.46906 1.76145 6.37762 1.81477 6.288 1.86922C6.18703 1.93003 6.0872 1.99287 5.98783 2.05504C5.89843 2.11222 5.80972 2.16985 5.72191 2.22929C5.6239 2.29532 5.52724 2.36406 5.43104 2.43281C5.3446 2.49475 5.25861 2.55646 5.17398 2.61886C5.07891 2.69033 4.98816 2.76475 4.89241 2.83894C4.80982 2.90497 4.72655 2.97054 4.64578 3.03883C4.55276 3.11552 4.4645 3.19493 4.37488 3.27434C4.29547 3.34513 4.21537 3.41388 4.13778 3.48716C4.04952 3.56952 3.96353 3.65506 3.87731 3.73991C3.80244 3.81388 3.7262 3.88694 3.65269 3.96295C3.6393 3.97701 3.62637 3.99244 3.6123 4.00673C4.62559 4.53039 5.69333 4.94129 6.79623 5.23216C7.3698 3.40389 8.38989 1.74738 9.76461 0.412598Z" fill="black"/>
<path d="M3.87495 22.2782C3.9614 22.3633 4.04739 22.4493 4.1361 22.5321C4.21324 22.6036 4.29265 22.6714 4.37184 22.7429C4.46191 22.823 4.55199 22.9033 4.64456 22.9804C4.72488 23.0478 4.80678 23.1129 4.88892 23.1783C4.98194 23.2536 5.07474 23.3285 5.17321 23.4009C5.25693 23.4637 5.34201 23.5245 5.4271 23.5869C5.5242 23.6566 5.62222 23.7262 5.72114 23.7932C5.80804 23.8517 5.8963 23.9089 5.98456 23.9651C6.08507 24.0296 6.18536 24.0929 6.28768 24.1541C6.3773 24.2081 6.46783 24.261 6.55859 24.3127C6.6625 24.3722 6.76664 24.4298 6.87169 24.4859C6.96449 24.5324 7.05751 24.583 7.15054 24.6295C7.2574 24.6835 7.36517 24.7354 7.47567 24.7867C7.56869 24.8305 7.66308 24.8736 7.75883 24.9158C7.86887 24.9646 7.97982 25.0086 8.09099 25.0551C8.18674 25.0941 8.28203 25.1327 8.37868 25.1695C8.49145 25.2128 8.6058 25.2532 8.72015 25.2927C8.81681 25.3265 8.91346 25.3605 9.01148 25.392C9.12764 25.4297 9.24381 25.4642 9.36315 25.4985C9.45981 25.5268 9.55692 25.5556 9.65448 25.5817C9.69214 25.5919 9.73026 25.5999 9.76792 25.6096C8.39253 24.2739 7.37198 22.6165 6.79818 20.7871C5.69528 21.0782 4.62754 21.4891 3.61426 22.013C3.62787 22.0268 3.6408 22.0418 3.65442 22.0561C3.72407 22.1314 3.79917 22.2045 3.87495 22.2782Z" fill="black"/>
<path d="M2.98313 21.3071C4.09942 20.7024 5.28309 20.2314 6.50943 19.9038C5.90817 17.813 5.59257 15.6505 5.57147 13.4751H0C0.101419 16.3436 1.15032 19.0978 2.98313 21.3071Z" fill="black"/>
</g>
<defs>
<clipPath id="clip0_521_815">
<rect width="26" height="26" fill="white"/>
</clipPath>
</defs>
</svg>
