<svg width="20" height="16" viewBox="0 0 20 16" fill="none" xmlns="http://www.w3.org/2000/svg">
<path d="M13 10.5H14.5C14.75 10.5 15 10.25 15 10V4.75C15 4.5 14.75 4.25 14.5 4.25H13C12.75 4.25 12.5 4.5 12.5 4.75V10C12.5 10.25 12.75 10.5 13 10.5ZM16.75 10.5H18.25C18.5 10.5 18.75 10.25 18.75 10V1C18.75 0.75 18.5 0.5 18.25 0.5H16.75C16.5 0.5 16.25 0.75 16.25 1V10C16.25 10.25 16.5 10.5 16.75 10.5ZM5.5 10.5H7C7.25 10.5 7.5 10.25 7.5 10V7.25C7.5 7 7.25 6.75 7 6.75H5.5C5.25 6.75 5 7 5 7.25V10C5 10.25 5.25 10.5 5.5 10.5ZM9.25 10.5H10.75C11 10.5 11.25 10.25 11.25 10V2.25C11.25 2 11 1.75 10.75 1.75H9.25C9 1.75 8.75 2 8.75 2.25V10C8.75 10.25 9 10.5 9.25 10.5ZM19.375 13H2.5V1.125C2.5 0.779687 2.22031 0.5 1.875 0.5H0.625C0.279687 0.5 0 0.779687 0 1.125V14.25C0 14.9402 0.559766 15.5 1.25 15.5H19.375C19.7203 15.5 20 15.2203 20 14.875V13.625C20 13.2797 19.7203 13 19.375 13Z" fill="#066AFF"/>
</svg>
