<svg width="17" height="15" viewBox="0 0 17 15" fill="none" xmlns="http://www.w3.org/2000/svg">
<path d="M12.1797 0.46322C10.7616 0.455641 9.41346 1.07845 8.49998 2.1632C7.59222 1.07104 6.24033 0.446456 4.82023 0.46322C2.15808 0.46322 0 2.6213 0 5.28344C0 9.84548 7.96201 14.2999 8.28481 14.472C8.41505 14.5591 8.58491 14.5591 8.71519 14.472C9.03799 14.2999 17 9.91003 17 5.28344C17 2.6213 14.8419 0.46322 12.1797 0.46322ZM8.49998 13.6113C7.25188 12.8796 0.860761 8.98473 0.860761 5.28344C0.860761 3.09669 2.63348 1.32394 4.82027 1.32394C6.15939 1.30635 7.4126 1.9818 8.13418 3.11C8.28069 3.31203 8.56329 3.35705 8.76532 3.2105C8.80391 3.18249 8.83785 3.14859 8.86582 3.11C10.0626 1.27978 12.5164 0.766244 14.3466 1.96298C15.467 2.6956 16.1414 3.94473 16.1392 5.2834C16.1392 9.02773 9.74808 12.9011 8.49998 13.6113Z" fill="black"/>
</svg>
