<svg width="20" height="20" viewBox="0 0 20 20" fill="none" xmlns="http://www.w3.org/2000/svg">
<g clip-path="url(#clip0_120_2886)">
<path d="M19.9363 8.84811C19.8938 8.74643 19.833 8.65393 19.7555 8.57643L17.2563 6.07725C16.9305 5.75225 16.4038 5.75225 16.078 6.07725C15.7522 6.40307 15.7522 6.93057 16.078 7.25557L17.1555 8.33307H12.5004C12.0396 8.33307 11.6671 8.70639 11.6671 9.16639C11.6671 9.62639 12.0396 9.99971 12.5004 9.99971H17.1554L16.0779 11.0772C15.7521 11.403 15.7521 11.9305 16.0779 12.2555C16.2404 12.4188 16.4538 12.4997 16.6671 12.4997C16.8805 12.4997 17.0938 12.4189 17.2563 12.2555L19.7555 9.75635C19.833 9.67967 19.8938 9.58717 19.9363 9.48467C20.0204 9.28143 20.0204 9.05143 19.9363 8.84811Z" fill="#FF4F4F"/>
<path d="M14.1671 11.6667C13.7063 11.6667 13.3338 12.04 13.3338 12.5V16.6667H10.0005V3.33332C10.0005 2.96582 9.7588 2.64082 9.4063 2.535L6.51213 1.66668H13.3338V5.83336C13.3338 6.29336 13.7063 6.66668 14.1671 6.66668C14.6279 6.66668 15.0004 6.29336 15.0004 5.83336V0.833359C15.0004 0.37332 14.6279 0 14.1671 0H0.833808C0.803808 0 0.777129 0.0125 0.747988 0.0158203C0.708808 0.02 0.672988 0.0266406 0.635488 0.0358203C0.547988 0.0583203 0.468808 0.0925 0.394668 0.139141C0.376347 0.15082 0.353848 0.151641 0.336348 0.164961C0.329629 0.17 0.327129 0.17918 0.320449 0.18418C0.229629 0.25582 0.153809 0.34332 0.0988085 0.4475C0.0871289 0.47 0.0846289 0.49418 0.0754882 0.5175C0.0488086 0.58082 0.019668 0.6425 0.00966796 0.7125C0.00548828 0.7375 0.0129883 0.76082 0.012168 0.785C0.0113477 0.80168 0.000488281 0.81668 0.000488281 0.83332V17.5C0.000488281 17.8975 0.281308 18.2392 0.670488 18.3167L9.0038 19.9834C9.05798 19.995 9.11298 20 9.16712 20C9.35794 20 9.54544 19.9342 9.69544 19.8109C9.88794 19.6525 10.0004 19.4167 10.0004 19.1667V18.3334H14.1671C14.6279 18.3334 15.0004 17.96 15.0004 17.5V12.5C15.0004 12.04 14.6279 11.6667 14.1671 11.6667Z" fill="#FF4F4F"/>
</g>
<defs>
<clipPath id="clip0_120_2886">
<rect width="20" height="20" fill="white"/>
</clipPath>
</defs>
</svg>
