<svg width="20" height="20" viewBox="0 0 20 20" fill="none" xmlns="http://www.w3.org/2000/svg">
<g clip-path="url(#clip0_386_8569)">
<path d="M19.9687 12.4063C19.9687 12.1563 19.7812 11.9375 19.5312 11.875L19.5625 10L19.7187 2.18753C19.7187 1.81253 19.2187 1.65628 19 1.96878C18.7187 2.46878 18.5 3.00003 18.4375 3.59378L17.5938 10L17.5313 10.4688C17.5 10.6875 17.6875 10.9063 17.9063 10.9063H18.4063C18.5 10.9063 18.5937 10.9375 18.6875 11C18.75 11.0625 18.8125 11.1563 18.8125 11.2813V11.8438H18.625C18.4687 11.8438 18.3437 11.9063 18.2188 12C18.125 12.0938 18.0625 12.25 18.0625 12.4063L18.0938 17.25C18.0938 17.5625 18.3438 17.8125 18.6562 17.8125V18.1875V17.8125H19.4687C19.7812 17.8125 20.0312 17.5625 20.0312 17.25L19.9687 12.4063Z" fill="#A98400"/>
<path d="M10.375 5.34375C7.8125 5.34375 5.75 7.4375 5.75 9.96875C5.75 12.5313 7.8125 14.5938 10.375 14.5938C12.9375 14.5938 15 12.5313 15 9.96875C15 7.4375 12.9375 5.34375 10.375 5.34375ZM10.375 6.90625C8.6875 6.90625 7.3125 8.28125 7.3125 9.96875C7.3125 10.1563 7.15625 10.3438 6.9375 10.3438C6.71875 10.3438 6.5625 10.1875 6.5625 9.96875C6.5625 7.875 8.28125 6.15625 10.375 6.15625C10.5938 6.15625 10.75 6.3125 10.75 6.53125C10.75 6.75 10.5938 6.90625 10.375 6.90625ZM10.375 5.34375C7.8125 5.34375 5.75 7.4375 5.75 9.96875C5.75 12.5313 7.8125 14.5938 10.375 14.5938C12.9375 14.5938 15 12.5313 15 9.96875C15 7.4375 12.9375 5.34375 10.375 5.34375ZM10.375 6.90625C8.6875 6.90625 7.3125 8.28125 7.3125 9.96875C7.3125 10.1563 7.15625 10.3438 6.9375 10.3438C6.71875 10.3438 6.5625 10.1875 6.5625 9.96875C6.5625 7.875 8.28125 6.15625 10.375 6.15625C10.5938 6.15625 10.75 6.3125 10.75 6.53125C10.75 6.75 10.5938 6.90625 10.375 6.90625ZM10.375 3.53125C6.8125 3.53125 3.90625 6.4375 3.90625 10C3.90625 13.5625 6.8125 16.4688 10.375 16.4688C13.9375 16.4688 16.8438 13.5625 16.8438 10C16.8438 6.40625 13.9375 3.53125 10.375 3.53125ZM10.375 15.3438C7.40625 15.3438 5 12.9375 5 9.96875C5 7 7.40625 4.59375 10.375 4.59375C13.3438 4.59375 15.75 7 15.75 9.96875C15.75 12.9375 13.3438 15.3438 10.375 15.3438ZM10.375 5.34375C7.8125 5.34375 5.75 7.4375 5.75 9.96875C5.75 12.5313 7.8125 14.5938 10.375 14.5938C12.9375 14.5938 15 12.5313 15 9.96875C15 7.4375 12.9375 5.34375 10.375 5.34375ZM10.375 6.90625C8.6875 6.90625 7.3125 8.28125 7.3125 9.96875C7.3125 10.1563 7.15625 10.3438 6.9375 10.3438C6.71875 10.3438 6.5625 10.1875 6.5625 9.96875C6.5625 7.875 8.28125 6.15625 10.375 6.15625C10.5938 6.15625 10.75 6.3125 10.75 6.53125C10.75 6.75 10.5938 6.90625 10.375 6.90625Z" fill="url(#paint0_linear_386_8569)"/>
<path d="M3.90625 2.15625L3.875 6.34375C3.875 7.40626 3 8.25001 1.9375 8.25001C0.875 8.25001 0 7.40626 0 6.34375V2.15625C0 1.96875 0.15625 1.8125 0.34375 1.8125C0.53125 1.8125 0.6875 1.96875 0.6875 2.15625V5.6875C0.6875 5.90625 0.875 6.09375 1.09375 6.09375H1.1875C1.40625 6.09375 1.59375 5.90625 1.59375 5.6875V2.15625C1.59375 1.96875 1.75 1.8125 1.9375 1.8125H2C2.1875 1.8125 2.34375 1.96875 2.34375 2.15625V5.6875C2.34375 5.90625 2.53125 6.09375 2.75 6.09375H2.8125C3.03125 6.09375 3.21875 5.90625 3.21875 5.6875V2.15625C3.21875 1.96875 3.375 1.8125 3.5625 1.8125C3.75 1.8125 3.90625 1.96875 3.90625 2.15625V2.15625Z" fill="#A98400"/>
<path d="M2.3125 18.2188H1.59375C1.09375 18.2188 0.6875 17.8125 0.6875 17.3125V13.6563C0.6875 13.1563 1.09375 12.75 1.59375 12.75H2.3125C2.8125 12.75 3.21875 13.1563 3.21875 13.6563V17.2812C3.25 17.7813 2.8125 18.2188 2.3125 18.2188V18.2188Z" fill="#A98400"/>
<path d="M2.625 8.875V12.1562C2.40625 12.0937 2.1875 12.0312 1.9375 12.0312C1.6875 12.0312 1.46875 12.0625 1.28125 12.1562V8.875C1.5 8.9375 1.71875 8.96875 1.96875 8.96875H2C2.1875 8.96875 2.4375 8.9375 2.625 8.875V8.875Z" fill="#A98400"/>
</g>
<defs>
<linearGradient id="paint0_linear_386_8569" x1="7" y1="5.5" x2="14" y2="15" gradientUnits="userSpaceOnUse">
<stop stop-color="#9C9C9C"/>
<stop offset="1" stop-color="#FF0000" stop-opacity="0.67"/>
</linearGradient>
<clipPath id="clip0_386_8569">
<rect width="20" height="20" fill="white"/>
</clipPath>
</defs>
</svg>
