<svg width="22" height="16" viewBox="0 0 22 16" fill="none" xmlns="http://www.w3.org/2000/svg">
<path d="M0.626465 9.375H13.436C13.5183 9.37506 13.5998 9.3589 13.6758 9.32744C13.7519 9.29598 13.821 9.24984 13.8792 9.19166C13.9373 9.13347 13.9835 9.06438 14.0149 8.98835C14.0464 8.91231 14.0626 8.83082 14.0625 8.74854V6.87646C14.0626 6.79418 14.0464 6.71269 14.0149 6.63665C13.9835 6.56062 13.9373 6.49153 13.8792 6.43334C13.821 6.37516 13.7519 6.32902 13.6758 6.29756C13.5998 6.2661 13.5183 6.24994 13.436 6.25H0.626465C0.544178 6.24994 0.462687 6.2661 0.386651 6.29756C0.310616 6.32902 0.24153 6.37516 0.183344 6.43334C0.125159 6.49153 0.0790163 6.56062 0.0475562 6.63665C0.0160961 6.71269 -6.40206e-05 6.79418 1.90603e-07 6.87646V8.74854C-6.40206e-05 8.83082 0.0160961 8.91231 0.0475562 8.98835C0.0790163 9.06438 0.125159 9.13347 0.183344 9.19166C0.24153 9.24984 0.310616 9.29598 0.386651 9.32744C0.462687 9.3589 0.544178 9.37506 0.626465 9.375ZM21.0938 0H0.78125C0.57405 0 0.375336 0.0823104 0.228823 0.228823C0.0823102 0.375336 1.90603e-07 0.57405 1.90603e-07 0.78125V2.34375C1.90603e-07 2.55095 0.0823102 2.74966 0.228823 2.89618C0.375336 3.04269 0.57405 3.125 0.78125 3.125H21.0938C21.301 3.125 21.4997 3.04269 21.6462 2.89618C21.7927 2.74966 21.875 2.55095 21.875 2.34375V0.78125C21.875 0.57405 21.7927 0.375336 21.6462 0.228823C21.4997 0.0823104 21.301 0 21.0938 0ZM21.0938 12.5H0.78125C0.57405 12.5 0.375336 12.5823 0.228823 12.7288C0.0823102 12.8753 1.90603e-07 13.074 1.90603e-07 13.2812V14.8438C1.90603e-07 15.051 0.0823102 15.2497 0.228823 15.3962C0.375336 15.5427 0.57405 15.625 0.78125 15.625H21.0938C21.301 15.625 21.4997 15.5427 21.6462 15.3962C21.7927 15.2497 21.875 15.051 21.875 14.8438V13.2812C21.875 13.074 21.7927 12.8753 21.6462 12.7288C21.4997 12.5823 21.301 12.5 21.0938 12.5Z" fill="black"/>
</svg>
