<svg width="26" height="26" viewBox="0 0 26 26" fill="none" xmlns="http://www.w3.org/2000/svg">
<g clip-path="url(#clip0_521_801)">
<path d="M13.0004 26C14.559 26 15.9011 25.0586 16.49 23.7148H9.51074C10.0997 25.0586 11.4419 26 13.0004 26Z" fill="black"/>
<path d="M20.8711 12.5867V10.918C20.8711 7.37232 18.5143 4.36714 15.2852 3.38559V2.28516C15.2852 1.02512 14.2601 0 13.0001 0C11.74 0 10.7149 1.02512 10.7149 2.28516V3.38559C7.48572 4.36714 5.12896 7.37227 5.12896 10.918V12.5867C5.12896 15.7013 3.9418 18.6545 1.78619 20.9025C1.57494 21.1228 1.51557 21.4478 1.63532 21.7285C1.75506 22.0093 2.0308 22.1914 2.336 22.1914H23.6641C23.9693 22.1914 24.245 22.0093 24.3647 21.7285C24.4845 21.4478 24.4251 21.1228 24.2139 20.9025C22.0583 18.6545 20.8711 15.7012 20.8711 12.5867ZM13.7618 3.08384C13.5111 3.05967 13.257 3.04688 13.0001 3.04688C12.7431 3.04688 12.489 3.05967 12.2383 3.08384V2.28516C12.2383 1.86514 12.58 1.52344 13.0001 1.52344C13.4201 1.52344 13.7618 1.86514 13.7618 2.28516V3.08384Z" fill="black"/>
</g>
<defs>
<clipPath id="clip0_521_801">
<rect width="26" height="26" fill="white"/>
</clipPath>
</defs>
</svg>
