<svg width="20" height="20" viewBox="0 0 20 20" fill="none" xmlns="http://www.w3.org/2000/svg">
<path d="M14.0625 15.9375H0.9375V1.5625H14.0625V15.9375Z" fill="#FAE8D8"/>
<path d="M9.6875 2.8125H5.3125C4.98098 2.8125 4.66304 2.6808 4.42862 2.44638C4.1942 2.21196 4.0625 1.89402 4.0625 1.5625V0.9375H10.9375V1.5625C10.9375 1.89402 10.8058 2.21196 10.5714 2.44638C10.337 2.6808 10.019 2.8125 9.6875 2.8125Z" fill="#7E8488"/>
<path d="M12.8125 11.875C12.8125 11.875 12.8125 10 10.3125 10C10.3125 10 9.99995 11.875 12.8125 11.875Z" fill="#B0BB74"/>
<path d="M12.8125 13.4851C12.7296 13.4851 12.6501 13.4522 12.5915 13.3936C12.5329 13.335 12.5 13.2555 12.5 13.1726V11.25C12.5 11.1671 12.5329 11.0876 12.5915 11.029C12.6501 10.9704 12.7296 10.9375 12.8125 10.9375C12.8954 10.9375 12.9749 10.9704 13.0335 11.029C13.0921 11.0876 13.125 11.1671 13.125 11.25V13.1726C13.125 13.2555 13.0921 13.335 13.0335 13.3936C12.9749 13.4522 12.8954 13.4851 12.8125 13.4851Z" fill="#818A55"/>
<path d="M9.375 14.9122C9.375 17.8586 11.25 19.6875 12.8125 18.75C14.375 19.6875 16.25 17.8586 16.25 14.9122C16.25 11.4747 12.8125 13.125 12.8125 13.125C12.8125 13.125 9.375 11.4747 9.375 14.9122Z" fill="#E74444"/>
<path d="M17.1875 10.625C17.1046 10.625 17.0251 10.5921 16.9665 10.5335C16.9079 10.4749 16.875 10.3954 16.875 10.3125V6.5625C16.875 6.47962 16.9079 6.40013 16.9665 6.34153C17.0251 6.28292 17.1046 6.25 17.1875 6.25C17.2704 6.25 17.3499 6.28292 17.4085 6.34153C17.4671 6.40013 17.5 6.47962 17.5 6.5625V10.3125C17.5 10.3954 17.4671 10.4749 17.4085 10.5335C17.3499 10.5921 17.2704 10.625 17.1875 10.625Z" fill="#818A55"/>
<path d="M18.9735 11.0207L18.5153 17.8957C18.4942 18.2121 18.3536 18.5087 18.122 18.7253C17.8904 18.942 17.5851 19.0625 17.268 19.0625H17.1071C16.79 19.0625 16.4847 18.942 16.2531 18.7253C16.0215 18.5087 15.8809 18.2121 15.8598 17.8957L15.7086 15.625L15.6668 15.0008L15.5836 13.75L15.5418 13.1258L15.4586 11.875L15.4168 11.2508L15.4016 11.0207C15.3902 10.8499 15.4139 10.6786 15.4714 10.5174C15.5289 10.3562 15.6188 10.2085 15.7357 10.0835C15.8526 9.95853 15.994 9.85888 16.151 9.79075C16.308 9.72263 16.4773 9.68749 16.6485 9.6875H17.7266C17.8978 9.68749 18.0671 9.72263 18.2241 9.79075C18.3811 9.85888 18.5224 9.95853 18.6393 10.0835C18.7563 10.2085 18.8462 10.3562 18.9037 10.5174C18.9612 10.6786 18.9849 10.8499 18.9735 11.0207Z" fill="#FC8D36"/>
<path d="M18.75 6.87506C18.7501 7.12955 18.6881 7.38022 18.5692 7.60528C18.4504 7.83033 18.2784 8.02296 18.0682 8.16641C17.858 8.30986 17.6159 8.39979 17.3631 8.42838C17.1102 8.45698 16.8541 8.42337 16.6172 8.33048C16.3803 8.23759 16.1696 8.08824 16.0035 7.8954C15.8375 7.70255 15.721 7.47207 15.6643 7.22397C15.6076 6.97588 15.6123 6.71769 15.6781 6.47184C15.7439 6.226 15.8688 5.99995 16.0418 5.81334C15.9588 5.62312 15.9245 5.41522 15.9419 5.20841C15.9594 5.00161 16.028 4.8024 16.1417 4.62876C16.2554 4.45513 16.4105 4.31253 16.5931 4.21384C16.7757 4.11515 16.98 4.06348 17.1875 4.06348C17.395 4.06348 17.5993 4.11515 17.7819 4.21384C17.9645 4.31253 18.1196 4.45513 18.2333 4.62876C18.347 4.8024 18.4156 5.00161 18.4331 5.20841C18.4505 5.41522 18.4162 5.62312 18.3332 5.81334C18.6015 6.10173 18.7505 6.48115 18.75 6.87506Z" fill="#B0BB74"/>
<path d="M3.4375 6.875C3.12847 6.875 2.82637 6.78336 2.56942 6.61167C2.31247 6.43998 2.1122 6.19595 1.99394 5.91044C1.87568 5.62493 1.84473 5.31077 1.90502 5.00767C1.96531 4.70458 2.11413 4.42617 2.33265 4.20765C2.55117 3.98913 2.82958 3.84031 3.13267 3.78002C3.43577 3.71973 3.74993 3.75068 4.03544 3.86894C4.32095 3.9872 4.56498 4.18747 4.73667 4.44442C4.90836 4.70137 5 5.00347 5 5.3125C4.99953 5.72676 4.83476 6.12392 4.54184 6.41684C4.24891 6.70977 3.85176 6.87454 3.4375 6.875ZM3.4375 4.375C3.25208 4.375 3.07082 4.42998 2.91665 4.533C2.76248 4.63601 2.64232 4.78243 2.57136 4.95374C2.50041 5.12504 2.48184 5.31354 2.51801 5.4954C2.55419 5.67726 2.64348 5.8443 2.77459 5.97541C2.9057 6.10653 3.07275 6.19581 3.2546 6.23199C3.43646 6.26816 3.62496 6.2496 3.79626 6.17864C3.96757 6.10768 4.11399 5.98752 4.217 5.83335C4.32002 5.67918 4.375 5.49792 4.375 5.3125C4.37471 5.06395 4.27584 4.82566 4.10009 4.64991C3.92434 4.47416 3.68605 4.37529 3.4375 4.375Z" fill="#D8C8B9"/>
<path d="M3.4375 10.625C3.12847 10.625 2.82637 10.5334 2.56942 10.3617C2.31247 10.19 2.1122 9.94596 1.99394 9.66045C1.87568 9.37494 1.84473 9.06077 1.90502 8.75767C1.96531 8.45458 2.11413 8.17617 2.33265 7.95765C2.55117 7.73913 2.82958 7.59031 3.13267 7.53002C3.43577 7.46973 3.74993 7.50068 4.03544 7.61894C4.32095 7.7372 4.56498 7.93747 4.73667 8.19442C4.90836 8.45138 5 8.75347 5 9.0625C4.99953 9.47676 4.83476 9.87392 4.54184 10.1668C4.24891 10.4598 3.85176 10.6245 3.4375 10.625ZM3.4375 8.125C3.25208 8.125 3.07082 8.17999 2.91665 8.283C2.76248 8.38601 2.64232 8.53243 2.57136 8.70374C2.50041 8.87504 2.48184 9.06354 2.51801 9.2454C2.55419 9.42726 2.64348 9.59431 2.77459 9.72542C2.9057 9.85653 3.07275 9.94582 3.2546 9.98199C3.43646 10.0182 3.62496 9.9996 3.79626 9.92864C3.96757 9.85768 4.11399 9.73752 4.217 9.58335C4.32002 9.42918 4.375 9.24792 4.375 9.0625C4.37471 8.81395 4.27584 8.57566 4.10009 8.39991C3.92434 8.22416 3.68605 8.12529 3.4375 8.125Z" fill="#D8C8B9"/>
<path d="M3.4375 14.375C3.12847 14.375 2.82637 14.2834 2.56942 14.1117C2.31247 13.94 2.1122 13.6959 1.99394 13.4104C1.87568 13.1249 1.84473 12.8108 1.90502 12.5077C1.96531 12.2046 2.11413 11.9262 2.33265 11.7076C2.55117 11.4891 2.82958 11.3403 3.13267 11.28C3.43577 11.2197 3.74993 11.2507 4.03544 11.3689C4.32095 11.4872 4.56498 11.6875 4.73667 11.9444C4.90836 12.2014 5 12.5035 5 12.8125C4.99953 13.2268 4.83476 13.6239 4.54184 13.9168C4.24891 14.2098 3.85176 14.3745 3.4375 14.375ZM3.4375 11.875C3.25208 11.875 3.07082 11.93 2.91665 12.033C2.76248 12.136 2.64232 12.2824 2.57136 12.4537C2.50041 12.625 2.48184 12.8135 2.51801 12.9954C2.55419 13.1772 2.64348 13.3443 2.77459 13.4754C2.9057 13.6065 3.07275 13.6958 3.2546 13.732C3.43646 13.7682 3.62496 13.7496 3.79626 13.6786C3.96757 13.6077 4.11399 13.4875 4.217 13.3333C4.32002 13.1792 4.375 12.9979 4.375 12.8125C4.37471 12.5639 4.27584 12.3257 4.10009 12.1499C3.92434 11.9742 3.68605 11.8753 3.4375 11.875Z" fill="#D8C8B9"/>
<path d="M17.2386 11.5625C17.2386 11.6454 17.2057 11.7249 17.1471 11.7835C17.0885 11.8421 17.009 11.875 16.9261 11.875H15.4585L15.4167 11.2508C15.4234 11.2504 15.4304 11.25 15.4375 11.25H16.9261C17.009 11.25 17.0885 11.2829 17.1471 11.3415C17.2057 11.4001 17.2386 11.4796 17.2386 11.5625Z" fill="#BA621E"/>
<path d="M17.2386 13.4375C17.2386 13.5204 17.2057 13.5999 17.1471 13.6585C17.0885 13.7171 17.009 13.75 16.9261 13.75H15.5835L15.5417 13.1258C15.5484 13.1254 15.5554 13.125 15.5625 13.125H16.9261C17.009 13.125 17.0885 13.1579 17.1471 13.2165C17.2057 13.2751 17.2386 13.3546 17.2386 13.4375Z" fill="#BA621E"/>
<path d="M17.3359 15.3125C17.3359 15.3954 17.303 15.4749 17.2444 15.5335C17.1858 15.5921 17.1063 15.625 17.0234 15.625H15.7085L15.6667 15.0008C15.6734 15.0004 15.6804 15 15.6875 15H17.0234C17.1063 15 17.1858 15.0329 17.2444 15.0915C17.303 15.1501 17.3359 15.2296 17.3359 15.3125Z" fill="#BA621E"/>
<path d="M12.1875 5H5.9375C5.85462 5 5.77513 4.96708 5.71653 4.90847C5.65792 4.84987 5.625 4.77038 5.625 4.6875C5.625 4.60462 5.65792 4.52513 5.71653 4.46653C5.77513 4.40792 5.85462 4.375 5.9375 4.375H12.1875C12.2704 4.375 12.3499 4.40792 12.4085 4.46653C12.4671 4.52513 12.5 4.60462 12.5 4.6875C12.5 4.77038 12.4671 4.84987 12.4085 4.90847C12.3499 4.96708 12.2704 5 12.1875 5Z" fill="#D8C8B9"/>
<path d="M12.1875 8.75H5.9375C5.85462 8.75 5.77513 8.71708 5.71653 8.65847C5.65792 8.59987 5.625 8.52038 5.625 8.4375C5.625 8.35462 5.65792 8.27513 5.71653 8.21653C5.77513 8.15792 5.85462 8.125 5.9375 8.125H12.1875C12.2704 8.125 12.3499 8.15792 12.4085 8.21653C12.4671 8.27513 12.5 8.35462 12.5 8.4375C12.5 8.52038 12.4671 8.59987 12.4085 8.65847C12.3499 8.71708 12.2704 8.75 12.1875 8.75Z" fill="#D8C8B9"/>
<path d="M9.0625 10H5.9375C5.85462 10 5.77513 9.96708 5.71653 9.90847C5.65792 9.84987 5.625 9.77038 5.625 9.6875C5.625 9.60462 5.65792 9.52513 5.71653 9.46653C5.77513 9.40792 5.85462 9.375 5.9375 9.375H9.0625C9.14538 9.375 9.22487 9.40792 9.28347 9.46653C9.34208 9.52513 9.375 9.60462 9.375 9.6875C9.375 9.77038 9.34208 9.84987 9.28347 9.90847C9.22487 9.96708 9.14538 10 9.0625 10Z" fill="#D8C8B9"/>
<path d="M9.0625 12.5H5.9375C5.85462 12.5 5.77513 12.4671 5.71653 12.4085C5.65792 12.3499 5.625 12.2704 5.625 12.1875C5.625 12.1046 5.65792 12.0251 5.71653 11.9665C5.77513 11.9079 5.85462 11.875 5.9375 11.875H9.0625C9.14538 11.875 9.22487 11.9079 9.28347 11.9665C9.34208 12.0251 9.375 12.1046 9.375 12.1875C9.375 12.2704 9.34208 12.3499 9.28347 12.4085C9.22487 12.4671 9.14538 12.5 9.0625 12.5Z" fill="#D8C8B9"/>
<path d="M8.4375 13.75H5.9375C5.85462 13.75 5.77513 13.7171 5.71653 13.6585C5.65792 13.5999 5.625 13.5204 5.625 13.4375C5.625 13.3546 5.65792 13.2751 5.71653 13.2165C5.77513 13.1579 5.85462 13.125 5.9375 13.125H8.4375C8.52038 13.125 8.59987 13.1579 8.65847 13.2165C8.71708 13.2751 8.75 13.3546 8.75 13.4375C8.75 13.5204 8.71708 13.5999 8.65847 13.6585C8.59987 13.7171 8.52038 13.75 8.4375 13.75Z" fill="#D8C8B9"/>
<path d="M9.0625 6.25H5.9375C5.85462 6.25 5.77513 6.21708 5.71653 6.15847C5.65792 6.09987 5.625 6.02038 5.625 5.9375C5.625 5.85462 5.65792 5.77513 5.71653 5.71653C5.77513 5.65792 5.85462 5.625 5.9375 5.625H9.0625C9.14538 5.625 9.22487 5.65792 9.28347 5.71653C9.34208 5.77513 9.375 5.85462 9.375 5.9375C9.375 6.02038 9.34208 6.09987 9.28347 6.15847C9.22487 6.21708 9.14538 6.25 9.0625 6.25Z" fill="#D8C8B9"/>
<path d="M3.43772 5.62506C3.37296 5.62508 3.30979 5.60498 3.25694 5.56753C3.2041 5.53009 3.1642 5.47715 3.14275 5.41604C3.12131 5.35493 3.11938 5.28867 3.13723 5.22642C3.15508 5.16416 3.19183 5.10899 3.24241 5.06854L4.8049 3.81854C4.86962 3.76674 4.95227 3.74277 5.03466 3.7519C5.11705 3.76104 5.19244 3.80253 5.24424 3.86725C5.29604 3.93197 5.32001 4.01461 5.31087 4.09701C5.30174 4.1794 5.26025 4.25478 5.19553 4.30658L3.63303 5.55658C3.57764 5.60102 3.50873 5.62518 3.43772 5.62506Z" fill="#E74444"/>
<path d="M3.43772 9.37506C3.37296 9.37508 3.30979 9.35498 3.25694 9.31754C3.2041 9.28009 3.1642 9.22716 3.14275 9.16605C3.12131 9.10494 3.11938 9.03868 3.13723 8.97642C3.15508 8.91417 3.19183 8.859 3.24241 8.81854L4.8049 7.56854C4.86962 7.51674 4.95227 7.49277 5.03466 7.5019C5.11705 7.51104 5.19244 7.55253 5.24424 7.61725C5.29604 7.68197 5.32001 7.76461 5.31087 7.84701C5.30174 7.9294 5.26025 8.00479 5.19553 8.05659L3.63303 9.30659C3.57764 9.35102 3.50873 9.37518 3.43772 9.37506Z" fill="#E74444"/>
<path d="M3.43772 13.1251C3.37296 13.1251 3.30979 13.105 3.25694 13.0675C3.2041 13.0301 3.1642 12.9772 3.14275 12.916C3.12131 12.8549 3.11938 12.7887 3.13723 12.7264C3.15508 12.6642 3.19183 12.609 3.24241 12.5685L4.8049 11.3185C4.86962 11.2667 4.95227 11.2428 5.03466 11.2519C5.11705 11.261 5.19244 11.3025 5.24424 11.3672C5.29604 11.432 5.32001 11.5146 5.31087 11.597C5.30174 11.6794 5.26025 11.7548 5.19553 11.8066L3.63303 13.0566C3.57764 13.101 3.50873 13.1252 3.43772 13.1251Z" fill="#E74444"/>
</svg>
