<svg width="20" height="20" viewBox="0 0 20 20" fill="none" xmlns="http://www.w3.org/2000/svg">
<path d="M2.41992 18.997H17.5799V1H2.41992V18.997ZM8.42102 11.2293V10.0207H14.3559V11.2293H8.42102ZM14.3559 12.7952V14.0039H8.42102V12.7952H14.3559ZM8.42102 8.43175V7.22312H14.3559V8.43175H8.42102ZM8.42102 5.63413V4.4255H14.3559V5.63413H8.42102ZM6.05088 11.2528C5.668 11.2528 5.35759 10.9822 5.35759 10.6485V10.6015C5.35759 10.2678 5.668 9.99721 6.05088 9.99721C6.43376 9.99721 6.74417 10.2678 6.74417 10.6015V10.6485C6.74417 10.9822 6.43376 11.2528 6.05088 11.2528ZM6.74417 13.3761V13.423C6.74417 13.7567 6.43376 14.0273 6.05088 14.0273C5.668 14.0273 5.35759 13.7567 5.35759 13.423V13.3761C5.35759 13.0423 5.668 12.7717 6.05088 12.7717C6.43376 12.7717 6.74417 13.0423 6.74417 13.3761ZM6.05088 8.45524C5.668 8.45524 5.35759 8.18467 5.35759 7.85093V7.80395C5.35759 7.47021 5.668 7.19963 6.05088 7.19963C6.43376 7.19963 6.74417 7.47021 6.74417 7.80395V7.85093C6.74417 8.18467 6.43376 8.45524 6.05088 8.45524ZM6.05088 5.65762C5.668 5.65762 5.35759 5.38705 5.35759 5.05331V5.00633C5.35759 4.67259 5.668 4.40202 6.05088 4.40202C6.43376 4.40202 6.74417 4.67259 6.74417 5.00633V5.05331C6.74417 5.38705 6.43376 5.65762 6.05088 5.65762Z" fill="#FF9900"/>
</svg>
