<svg width="20" height="18" viewBox="0 0 20 18" fill="none" xmlns="http://www.w3.org/2000/svg">
<path d="M13.9792 2.99967L17.1111 6.13162C17.2431 6.26356 17.2431 6.47884 17.1111 6.61079L9.52778 14.1941L6.30556 14.5518C5.875 14.6004 5.51042 14.2358 5.55903 13.8052L5.91667 10.583L13.5 2.99967C13.6319 2.86773 13.8472 2.86773 13.9792 2.99967ZM19.6042 2.20454L17.9097 0.510091C17.3819 -0.0176867 16.5243 -0.0176867 15.9931 0.510091L14.7639 1.73926C14.6319 1.8712 14.6319 2.08648 14.7639 2.21842L17.8958 5.35037C18.0278 5.48231 18.2431 5.48231 18.375 5.35037L19.6042 4.1212C20.1319 3.58995 20.1319 2.73231 19.6042 2.20454ZM13.3333 12.1316V15.6663H2.22222V4.55523H10.2014C10.3125 4.55523 10.4167 4.51009 10.4965 4.4337L11.8854 3.04481C12.1493 2.78092 11.9618 2.33301 11.5903 2.33301H1.66667C0.746528 2.33301 0 3.07954 0 3.99967V16.2219C0 17.142 0.746528 17.8886 1.66667 17.8886H13.8889C14.809 17.8886 15.5556 17.142 15.5556 16.2219V10.7427C15.5556 10.3712 15.1076 10.1872 14.8438 10.4476L13.4549 11.8365C13.3785 11.9163 13.3333 12.0205 13.3333 12.1316Z" fill="#128DFF"/>
</svg>
