<svg width="25" height="25" viewBox="0 0 25 25" fill="none" xmlns="http://www.w3.org/2000/svg">
<path d="M6.25 20.7031H22.6562C22.872 20.7031 23.0469 20.5282 23.0469 20.3125V8.59375C23.0469 8.37803 22.872 8.20312 22.6562 8.20312H6.25C6.03428 8.20312 5.85938 8.37803 5.85938 8.59375V20.3125C5.85938 20.5282 6.03428 20.7031 6.25 20.7031Z" fill="#D5E5FE"/>
<path d="M18.75 2.34375H1.5625C1.27793 2.34375 1.01108 2.41973 0.78125 2.55264L0.390625 3.90625V16.4062H16.1133L20.3125 8.20312V3.90625C20.3125 3.04331 19.6129 2.34375 18.75 2.34375Z" fill="#DBEAFF"/>
<path d="M16.4062 8.98438L12.0104 10.8683C11.3185 11.1648 10.5428 11.2017 9.82588 10.972L8.59336 10.5771C7.96416 10.3755 7.27568 10.5057 6.76353 10.9231L1.95312 14.8438L11.3281 15.2344L16.4062 8.98438Z" fill="#B3E59F"/>
<path d="M0 3.90635V15.2345L0.410986 15.56L0.78125 14.961V2.55273C0.316162 2.82344 0 3.32949 0 3.90635Z" fill="#C3DDFF"/>
<path d="M18.579 7.46037C17.9776 7.20261 17.2792 7.34694 16.8292 7.82194L11.2485 13.7127C10.8463 14.1372 10.1926 14.2003 9.71665 13.8603L8.47192 12.9712C8.05845 12.6759 7.52715 12.6 7.04761 12.7679L0.78125 14.9611L0.439453 16.0321C0.439453 16.895 1.13901 17.5946 2.00195 17.5946H18.75L20.1034 17.1877C20.2364 16.9578 20.3125 16.691 20.3125 16.4064V8.20329L18.579 7.46037Z" fill="#95D6A4"/>
<path d="M22.4604 7.03125H21.8745C21.6586 7.03125 21.4839 6.85635 21.4839 6.64062C21.4839 6.4249 21.6586 6.25 21.8745 6.25H22.4604C22.6764 6.25 22.8511 6.4249 22.8511 6.64062C22.8511 6.85635 22.6764 7.03125 22.4604 7.03125Z" fill="#EDF4FF"/>
<path d="M22.5397 22.6562H21.3332C21.1172 22.6562 20.9425 22.4813 20.9425 22.2655C20.9425 22.0498 21.1172 21.8749 21.3332 21.8749H22.5397C22.7557 21.8749 22.9304 22.0498 22.9304 22.2655C22.9304 22.4813 22.7557 22.6562 22.5397 22.6562ZM19.7241 22.6562H18.5175C18.3016 22.6562 18.1269 22.4813 18.1269 22.2655C18.1269 22.0498 18.3016 21.8749 18.5175 21.8749H19.7241C19.94 21.8749 20.1147 22.0498 20.1147 22.2655C20.1147 22.4813 19.94 22.6562 19.7241 22.6562ZM16.9085 22.6562H15.7019C15.486 22.6562 15.3113 22.4813 15.3113 22.2655C15.3113 22.0498 15.486 21.8749 15.7019 21.8749H16.9085C17.1244 21.8749 17.2991 22.0498 17.2991 22.2655C17.2991 22.4813 17.1244 22.6562 16.9085 22.6562ZM14.0929 22.6562H12.8863C12.6704 22.6562 12.4956 22.4813 12.4956 22.2655C12.4956 22.0498 12.6704 21.8749 12.8863 21.8749H14.0929C14.3088 21.8749 14.4835 22.0498 14.4835 22.2655C14.4835 22.4813 14.3088 22.6562 14.0929 22.6562ZM11.2772 22.6562H10.0706C9.85473 22.6562 9.68002 22.4813 9.68002 22.2655C9.68002 22.0498 9.85473 21.8749 10.0706 21.8749H11.2772C11.4932 21.8749 11.6679 22.0498 11.6679 22.2655C11.6679 22.4813 11.4932 22.6562 11.2772 22.6562ZM8.46161 22.6562H7.25502C7.0391 22.6562 6.8644 22.4813 6.8644 22.2655C6.8644 22.0498 7.0391 21.8749 7.25502 21.8749H8.46161C8.67753 21.8749 8.85224 22.0498 8.85224 22.2655C8.85224 22.4813 8.67753 22.6562 8.46161 22.6562ZM5.6475 22.6418C5.62997 22.6418 5.61239 22.6407 5.59447 22.6382C5.08827 22.5694 4.63544 22.3088 4.31962 21.9045C4.18686 21.7346 4.21698 21.4891 4.38676 21.3562C4.55766 21.223 4.80258 21.2535 4.93529 21.4235C5.12528 21.6665 5.39647 21.8229 5.69975 21.8643C5.91376 21.8933 6.06327 22.0903 6.03432 22.3039C6.00761 22.4998 5.83979 22.6418 5.6475 22.6418ZM24.0592 22.284C23.9489 22.284 23.8391 22.2375 23.762 22.1467C23.622 21.9825 23.6415 21.7361 23.8059 21.5961C24.0405 21.3962 24.1854 21.1181 24.2137 20.8135C24.2339 20.5986 24.4269 20.4422 24.639 20.4608C24.8538 20.4809 25.0117 20.6712 24.9919 20.886C24.9442 21.3947 24.7031 21.858 24.3125 22.1908C24.2388 22.2533 24.1488 22.284 24.0592 22.284ZM24.6096 19.6317C24.3937 19.6317 24.219 19.4568 24.219 19.2411V18.0345C24.219 17.8188 24.3937 17.6438 24.6096 17.6438C24.8255 17.6438 25.0002 17.8188 25.0002 18.0345V19.2411C25.0002 19.4568 24.8255 19.6317 24.6096 19.6317ZM24.6096 16.8162C24.3937 16.8162 24.219 16.6413 24.219 16.4256V15.2188C24.219 15.0031 24.3937 14.8282 24.6096 14.8282C24.8255 14.8282 25.0002 15.0031 25.0002 15.2188V16.4256C25.0002 16.6413 24.8255 16.8162 24.6096 16.8162ZM24.6096 14.0006C24.3937 14.0006 24.219 13.8257 24.219 13.61V12.4032C24.219 12.1875 24.3937 12.0126 24.6096 12.0126C24.8255 12.0126 25.0002 12.1875 25.0002 12.4032V13.61C25.0002 13.8257 24.8255 14.0006 24.6096 14.0006ZM24.6096 11.185C24.3937 11.185 24.219 11.0101 24.219 10.7943V9.58755C24.219 9.37183 24.3937 9.19693 24.6096 9.19693C24.8255 9.19693 25.0002 9.37183 25.0002 9.58755V10.7943C25.0002 11.0101 24.8255 11.185 24.6096 11.185ZM24.5936 8.37012C24.4025 8.37012 24.2354 8.22974 24.2072 8.03501C24.1637 7.73213 24.0054 7.46167 23.7608 7.27359C23.5899 7.14199 23.5583 6.89668 23.6899 6.72578C23.8207 6.55469 24.0656 6.52266 24.2377 6.65445C24.6443 6.96743 24.908 7.41836 24.9808 7.92398C25.0113 8.1376 24.8629 8.3356 24.6493 8.36612C24.6306 8.3688 24.6119 8.37012 24.5936 8.37012Z" fill="#D5E5FE"/>
<path d="M4.29688 20.5078C4.08096 20.5078 3.90625 20.3329 3.90625 20.1172V19.5312C3.90625 19.3155 4.08096 19.1406 4.29688 19.1406C4.51279 19.1406 4.6875 19.3155 4.6875 19.5312V20.1172C4.6875 20.3329 4.51279 20.5078 4.29688 20.5078Z" fill="#EDF4FF"/>
<path d="M4.29688 8.20312C5.15982 8.20312 5.85938 7.50357 5.85938 6.64062C5.85938 5.77768 5.15982 5.07812 4.29688 5.07812C3.43393 5.07812 2.73438 5.77768 2.73438 6.64062C2.73438 7.50357 3.43393 8.20312 4.29688 8.20312Z" fill="white"/>
<path d="M2.73437 17.1875C1.65571 17.1875 0.78125 16.313 0.78125 15.2344V14.9609L0 15.2344V16.4063C0 17.2692 0.69956 17.9688 1.5625 17.9688H18.75C19.3269 17.9688 19.8328 17.6525 20.1034 17.1875H2.73437Z" fill="#78C2A4"/>
</svg>
