<svg width="25" height="25" viewBox="0 0 25 25" fill="none" xmlns="http://www.w3.org/2000/svg">
<path d="M2.88213 1.52197H17.4547C19.0415 1.52197 20.3368 2.81731 20.3368 4.40409V19.3976C20.3368 20.9844 19.0415 22.2797 17.4547 22.2797H2.88213C1.29534 22.2797 0 20.9844 0 19.3976V4.37171C0 2.81731 1.29534 1.52197 2.88213 1.52197Z" fill="#4A566E"/>
<path d="M9.42358 15.0907L5.14897 10.8161L0 15.965V17.0337V19.3653C0 20.9521 1.29534 22.2474 2.88213 22.2474H17.4547C19.0415 22.2474 20.3368 20.9521 20.3368 19.3653V17.0337V13.8277L15.5117 8.97021L9.42358 15.0907Z" fill="#00B594"/>
<path d="M9.29394 10.2007C10.2955 10.2007 11.1074 9.38876 11.1074 8.3872C11.1074 7.38565 10.2955 6.57373 9.29394 6.57373C8.29239 6.57373 7.48047 7.38565 7.48047 8.3872C7.48047 9.38876 8.29239 10.2007 9.29394 10.2007Z" fill="#FFCC03"/>
<path d="M20.3368 23.4779C22.9122 23.4779 25 21.3901 25 18.8147C25 16.2393 22.9122 14.1515 20.3368 14.1515C17.7614 14.1515 15.6736 16.2393 15.6736 18.8147C15.6736 21.3901 17.7614 23.4779 20.3368 23.4779Z" fill="white"/>
<path d="M18.1346 19.4949C17.7784 19.4949 17.4546 19.2034 17.4546 18.8148C17.4546 18.4262 17.746 18.1348 18.1346 18.1348H22.5388C22.9274 18.1348 23.2188 18.4262 23.2188 18.8148C23.2188 19.2034 22.9274 19.4949 22.5388 19.4949H18.1346Z" fill="#00B594"/>
<path d="M21.0168 21.0169C21.0168 21.4055 20.7254 21.697 20.3368 21.697C19.9482 21.697 19.6567 21.4055 19.6567 21.0169V16.6451C19.6567 16.2889 19.9482 15.9651 20.3368 15.9651C20.693 15.9651 21.0168 16.2565 21.0168 16.6451V21.0169Z" fill="#00B594"/>
</svg>
