<svg width="16" height="18" viewBox="0 0 16 18" fill="none" xmlns="http://www.w3.org/2000/svg">
<path d="M0.420044 17.997H15.58V0H0.420044V17.997ZM6.42114 10.2293V9.0207H12.356V10.2293H6.42114ZM12.356 11.7952V13.0039H6.42114V11.7952H12.356ZM6.42114 7.43175V6.22312H12.356V7.43175H6.42114ZM6.42114 4.63413V3.4255H12.356V4.63413H6.42114ZM4.051 10.2528C3.66812 10.2528 3.35771 9.98225 3.35771 9.6485V9.60153C3.35771 9.26779 3.66812 8.99721 4.051 8.99721C4.43389 8.99721 4.7443 9.26779 4.7443 9.60153V9.6485C4.7443 9.98225 4.43389 10.2528 4.051 10.2528ZM4.7443 12.3761V12.423C4.7443 12.7567 4.43389 13.0273 4.051 13.0273C3.66812 13.0273 3.35771 12.7567 3.35771 12.423V12.3761C3.35771 12.0423 3.66812 11.7717 4.051 11.7717C4.43389 11.7717 4.7443 12.0423 4.7443 12.3761ZM4.051 7.45524C3.66812 7.45524 3.35771 7.18467 3.35771 6.85093V6.80395C3.35771 6.47021 3.66812 6.19963 4.051 6.19963C4.43389 6.19963 4.7443 6.47021 4.7443 6.80395V6.85093C4.7443 7.18467 4.43389 7.45524 4.051 7.45524ZM4.051 4.65762C3.66812 4.65762 3.35771 4.38705 3.35771 4.05331V4.00633C3.35771 3.67259 3.66812 3.40202 4.051 3.40202C4.43389 3.40202 4.7443 3.67259 4.7443 4.00633V4.05331C4.7443 4.38705 4.43389 4.65762 4.051 4.65762Z" fill="#FF9900"/>
</svg>
