<svg width="26" height="26" viewBox="0 0 26 26" fill="none" xmlns="http://www.w3.org/2000/svg">
<path fill-rule="evenodd" clip-rule="evenodd" d="M13 0C5.82969 0 0 5.82969 0 13C0 20.1703 5.82969 26 13 26C20.1703 26 26 20.1703 26 13C26 5.82969 20.1703 0 13 0Z" fill="black"/>
<path d="M5.89062 14.1986V11.7967C5.89062 11.5529 6.08867 11.3498 6.3375 11.3498H11.3598V6.33262C11.3598 6.08887 11.5578 5.88574 11.8066 5.88574H14.2086C14.4523 5.88574 14.6504 6.08379 14.6504 6.33262V11.3549H19.6676C19.9113 11.3549 20.1145 11.5529 20.1145 11.8018V14.2037C20.1145 14.4475 19.9164 14.6455 19.6676 14.6455H14.6453V19.6627C14.6453 19.9064 14.4473 20.1096 14.2035 20.1096H11.8016C11.5578 20.1096 11.3547 19.9115 11.3547 19.6627V14.6404H6.3375C6.08867 14.6455 5.89062 14.4424 5.89062 14.1986Z" fill="white"/>
</svg>
