<svg width="20" height="20" viewBox="0 0 20 20" fill="none" xmlns="http://www.w3.org/2000/svg">
<path d="M18.9978 0.172549L0.172521 18.9978C-0.196235 19.3665 0.0653617 20 0.587615 20H19.4129C19.7371 20 19.9999 19.7371 19.9999 19.4129V0.587683C20 0.0661727 19.3671 -0.196715 18.9978 0.172549ZM18.8258 18.8258H2.00495L4.99065 15.8402L5.80839 16.6579C5.92303 16.7725 6.07328 16.8298 6.22349 16.8298C6.74183 16.8298 7.00949 16.1985 6.63858 15.8276L5.82084 15.0099L7.49542 13.3353L8.31317 14.1531C8.4278 14.2677 8.57805 14.325 8.72826 14.325C9.2466 14.325 9.51427 13.6937 9.14336 13.3228L8.32565 12.5051L10.0002 10.8305L10.818 11.6483C10.9326 11.7629 11.0829 11.8202 11.2331 11.8202C11.7514 11.8202 12.0191 11.1889 11.6482 10.818L10.8305 10.0003L12.5051 8.32572L13.3228 9.14346C13.4374 9.25809 13.5877 9.31539 13.7379 9.31539C14.2562 9.31539 14.5239 8.6841 14.153 8.31319L13.3353 7.49549L15.0099 5.8209L15.8276 6.63865C15.9422 6.75328 16.0925 6.81058 16.2427 6.81058C16.761 6.81058 17.0287 6.17929 16.6578 5.80838L15.8401 4.99067L18.8258 2.00498V18.8258H18.8258Z" fill="black"/>
<path d="M15.2014 9.8786L9.87868 15.2013C9.50993 15.5701 9.77152 16.2035 10.2938 16.2035H15.6165C15.9407 16.2035 16.2036 15.9407 16.2036 15.6165V10.2937C16.2036 9.77223 15.5707 9.50934 15.2014 9.8786ZM15.0295 15.0294H11.7111L15.0295 11.711V15.0294Z" fill="black"/>
</svg>
