<svg width="20" height="20" viewBox="0 0 20 20" fill="none" xmlns="http://www.w3.org/2000/svg">
<path d="M19.5547 8.26559L17.2656 7.69137C17.125 7.25777 16.9492 6.83594 16.7383 6.43746C17.0781 5.86324 17.8046 4.65625 17.8046 4.65625C17.9336 4.42188 17.8984 4.12891 17.7109 3.94137L16.0586 2.27734C15.8711 2.08988 15.5664 2.05469 15.3437 2.19531L13.5625 3.26172C13.1523 3.05078 12.7305 2.87496 12.3086 2.73438L11.7343 0.445352C11.6758 0.187461 11.4414 0 11.1719 0H8.82812C8.55863 0 8.32422 0.187461 8.26566 0.445312C8.26566 0.445312 7.86719 2.04293 7.69145 2.73434C7.23441 2.88668 6.78906 3.07414 6.36723 3.30855L4.51562 2.19527C4.28125 2.05465 3.98828 2.08984 3.80078 2.2773L2.14844 3.94137C1.94926 4.12891 1.91406 4.42188 2.05465 4.65625L3.20312 6.56641C3.01559 6.92969 2.86324 7.30469 2.73438 7.69137L0.445352 8.26559C0.187461 8.32422 0 8.55855 0 8.82812V11.1719C0 11.4414 0.187461 11.6758 0.445312 11.7343L2.73438 12.3086C2.875 12.7421 3.06254 13.1757 3.27348 13.5859L2.25395 15.2852C2.11332 15.5195 2.14844 15.8125 2.34766 16.0117L4.00004 17.664C4.1875 17.8516 4.48047 17.8867 4.71488 17.7461C4.71488 17.7461 5.86328 17.0663 6.42586 16.7265C6.83594 16.9492 7.25777 17.125 7.69145 17.2656L8.26566 19.5546C8.32426 19.8124 8.55863 20 8.82812 20H11.1719C11.4414 20 11.6758 19.8124 11.7343 19.5546L12.3086 17.2656C12.7539 17.1249 13.1875 16.9375 13.6094 16.7148C14.1836 17.0546 15.3437 17.7461 15.3437 17.7461C15.5664 17.8867 15.8711 17.8516 16.0586 17.664L17.7109 16.0117C17.8984 15.8125 17.9336 15.5195 17.8046 15.2852L16.75 13.539C16.9609 13.1406 17.125 12.7304 17.2656 12.3086L19.5546 11.7343C19.8125 11.6757 20 11.4414 20 11.1719V8.82812C20 8.55855 19.8125 8.32422 19.5547 8.26559ZM10 14.1016C7.73828 14.1016 5.89844 12.2617 5.89844 10C5.89844 7.73828 7.73828 5.89844 10 5.89844C12.2617 5.89844 14.1016 7.73828 14.1016 10C14.1016 12.2617 12.2617 14.1016 10 14.1016Z" fill="#A1A7B3"/>
</svg>
