<svg width="20" height="20" viewBox="0 0 20 20" fill="none" xmlns="http://www.w3.org/2000/svg">
<g clip-path="url(#clip0_58_1779)">
<path d="M2.83372 19.8046L0.195397 17.1663C-0.0651119 16.9058 -0.0651119 16.4834 0.195397 16.2229L16.2229 0.195381C16.4834 -0.0651271 16.9058 -0.0651271 17.1663 0.195381L19.8047 2.83371C20.0652 3.09422 20.0652 3.51664 19.8047 3.77715L3.77716 19.8046C3.51665 20.0652 3.09423 20.0652 2.83372 19.8046Z" fill="black"/>
<path d="M5.84975 15.8301L6.80061 16.781L7.25106 16.3305L6.3002 15.3797L5.84975 15.8301Z" fill="white"/>
<path d="M6.08939 13.6889L7.99106 15.5906L8.44151 15.1401L6.53984 13.2385L6.08939 13.6889Z" fill="white"/>
<path d="M2.5191 17.2595L4.42076 19.1611L4.87121 18.7107L2.96955 16.809L2.5191 17.2595Z" fill="white"/>
<path d="M8.2304 13.4496L9.18123 14.4004L9.63167 13.9499L8.68084 12.9991L8.2304 13.4496Z" fill="white"/>
<path d="M9.42069 12.2591L10.3715 13.21L10.822 12.7595L9.87114 11.8087L9.42069 12.2591Z" fill="#FF5E2C"/>
<path d="M9.66026 10.1186L11.562 12.0203L12.0124 11.5698L10.1107 9.66813L9.66026 10.1186Z" fill="#FF5E2C"/>
<path d="M11.8014 9.87921L12.7523 10.8301L13.2027 10.3797L12.2518 9.42882L11.8014 9.87921Z" fill="white"/>
<path d="M12.9912 8.68906L13.9421 9.63989L14.3925 9.18944L13.4417 8.23861L12.9912 8.68906Z" fill="white"/>
<path d="M13.2306 6.54777L15.1322 8.44946L15.5827 7.99902L13.681 6.09733L13.2306 6.54777Z" fill="white"/>
<path d="M15.3714 6.30866L16.3223 7.25952L16.7728 6.80907L15.8219 5.85821L15.3714 6.30866Z" fill="white"/>
<path d="M16.5614 5.11824L17.5123 6.06909L17.9628 5.61865L17.0119 4.66779L16.5614 5.11824Z" fill="white"/>
<path d="M16.801 2.97749L18.7027 4.87915L19.1531 4.4287L17.2514 2.52704L16.801 2.97749Z" fill="white"/>
<path d="M4.65975 17.0198L5.6106 17.9707L6.06104 17.5203L5.11019 16.5694L4.65975 17.0198Z" fill="white"/>
<path d="M8.69262 7.72491L6.08356 10.334L9.66515 13.9156L12.2742 11.3065L8.69262 7.72491Z" fill="white"/>
<path d="M15.4688 18.0788L18.0779 15.4697L3.41278 0.804513C2.69231 0.0840427 1.52414 0.0840427 0.803674 0.804513C0.0832034 1.52498 0.0832034 2.69315 0.803674 3.41362L15.4688 18.0788Z" fill="#262626"/>
<path d="M17.8897 16.3651L18.8593 18.8587L16.3646 17.8902L17.8897 16.3651Z" stroke="black"/>
<mask id="path-18-inside-1_58_1779" fill="white">
<path d="M19.5736 19.3163L18.0779 15.4697L17.4055 16.1421L18.6368 19.3088L19.3171 19.5729C19.4778 19.6353 19.6361 19.4769 19.5736 19.3163Z"/>
</mask>
<path d="M19.5736 19.3163L18.6416 19.6787L18.6416 19.6788L19.5736 19.3163ZM18.0779 15.4697L19.0099 15.1073L18.4545 13.6789L17.3708 14.7626L18.0779 15.4697ZM17.4055 16.1421L16.6984 15.435L16.2371 15.8964L16.4735 16.5045L17.4055 16.1421ZM18.6368 19.3088L17.7048 19.6712L17.8644 20.0816L18.2749 20.241L18.6368 19.3088ZM19.3171 19.5729L18.9551 20.5051L18.9553 20.5052L19.3171 19.5729ZM20.5056 18.9539L19.0099 15.1073L17.1459 15.8321L18.6416 19.6787L20.5056 18.9539ZM17.3708 14.7626L16.6984 15.435L18.1127 16.8492L18.785 16.1768L17.3708 14.7626ZM16.4735 16.5045L17.7048 19.6712L19.5689 18.9464L18.3376 15.7797L16.4735 16.5045ZM18.2749 20.241L18.9551 20.5051L19.679 18.6407L18.9988 18.3766L18.2749 20.241ZM18.9553 20.5052C19.9265 20.882 20.8835 19.9254 20.5055 18.9537L18.6416 19.6788C18.3886 19.0285 19.0292 18.3886 19.6788 18.6406L18.9553 20.5052Z" fill="black" mask="url(#path-18-inside-1_58_1779)"/>
<path d="M3.41278 0.804638C2.88399 0.275809 2.11419 0.135653 1.45708 0.383075C1.69528 0.472763 1.9188 0.612919 2.11048 0.804599L14.8177 13.5118C15.8991 14.5932 15.8991 16.3464 14.8177 17.4278L15.4688 18.0789L18.0779 15.4698L3.41278 0.804638Z" fill="black"/>
<path d="M19.3171 19.5729C19.4778 19.6353 19.6361 19.477 19.5736 19.3163L19.1044 18.1096L18.1098 19.1042L19.3171 19.5729Z" fill="white"/>
<path d="M4.64431 2.03668L2.03523 4.64575L3.3094 5.91992L5.91847 3.31085L4.64431 2.03668Z" fill="white"/>
<path d="M4.38901 4.8403L16.5436 16.9949L16.994 16.5444L4.83946 4.38985L4.38901 4.8403Z" fill="white"/>
</g>
<defs>
<clipPath id="clip0_58_1779">
<rect width="20" height="20" fill="white"/>
</clipPath>
</defs>
</svg>
