<svg width="26" height="26" viewBox="0 0 26 26" fill="none" xmlns="http://www.w3.org/2000/svg">
<path d="M13 0C9.21989 0 6.14453 3.07536 6.14453 6.85547C6.14453 10.6356 9.21989 13.7109 13 13.7109C16.7801 13.7109 19.8555 10.6356 19.8555 6.85547C19.8555 3.07536 16.7801 0 13 0Z" fill="black"/>
<path d="M21.5295 18.1896C19.6526 16.2839 17.1645 15.2344 14.5234 15.2344H11.4766C8.83553 15.2344 6.34735 16.2839 4.47048 18.1896C2.60279 20.086 1.57422 22.5892 1.57422 25.2383C1.57422 25.659 1.91527 26 2.33594 26H23.6641C24.0847 26 24.4258 25.659 24.4258 25.2383C24.4258 22.5892 23.3972 20.086 21.5295 18.1896Z" fill="black"/>
</svg>
