<svg width="22" height="22" viewBox="0 0 22 22" fill="none" xmlns="http://www.w3.org/2000/svg">
<path d="M11 2C6.03749 2 1.99997 6.03731 1.99997 11C1.99997 15.9627 6.03749 20 11 20C15.9627 20 20 15.9627 20 11C20 6.03731 15.9625 2 11 2ZM11 18.6861C6.76188 18.6861 3.31383 15.2381 3.31383 11C3.31383 6.76191 6.76188 3.31386 11 3.31386C15.2381 3.31386 18.6861 6.76188 18.6861 10.9998C18.6861 15.2381 15.2381 18.6861 11 18.6861Z" fill="#585858"/>
<path d="M14.0657 11H11.219V7.05842C11.219 6.69557 10.9249 6.40149 10.562 6.40149C10.1992 6.40149 9.90509 6.69557 9.90509 7.05842V11.657C9.90509 12.0198 10.1992 12.3139 10.562 12.3139H14.0657C14.4285 12.3139 14.7226 12.0198 14.7226 11.657C14.7226 11.2941 14.4285 11 14.0657 11Z" fill="#585858"/>
<line x1="17" y1="5.41423" x2="18.4142" y2="4.00002" stroke="#585858" stroke-linecap="round"/>
<line x1="8.49997" y1="1" x2="13.5" y2="1" stroke="#585858" stroke-linecap="round"/>
</svg>
