<svg width="17" height="18" viewBox="0 0 17 18" fill="none" xmlns="http://www.w3.org/2000/svg">
<path d="M5.78755 12.7676V10.5073H17V12.7676H5.78755ZM17 15.6959V17.9562H5.78755V15.6959H17ZM5.78755 7.5359V5.27567H17V7.5359H5.78755ZM5.78755 2.30415V0.0439244H17V2.30415H5.78755ZM1.30979 12.8115C0.586439 12.8115 0 12.3055 0 11.6814V11.5935C0 10.9694 0.586439 10.4634 1.30979 10.4634C2.03315 10.4634 2.61959 10.9694 2.61959 11.5935V11.6814C2.61959 12.3055 2.03315 12.8115 1.30979 12.8115ZM2.61959 16.7821V16.8699C2.61959 17.494 2.03315 18 1.30979 18C0.586439 18 0 17.494 0 16.8699V16.7821C0 16.158 0.586439 15.652 1.30979 15.652C2.03315 15.652 2.61959 16.158 2.61959 16.7821ZM1.30979 7.57982C0.586439 7.57982 0 7.07384 0 6.44971V6.36186C0 5.73774 0.586439 5.23175 1.30979 5.23175C2.03315 5.23175 2.61959 5.73774 2.61959 6.36186V6.44971C2.61959 7.07384 2.03315 7.57982 1.30979 7.57982ZM1.30979 2.34808C0.586439 2.34808 0 1.84209 0 1.21796V1.13011C0 0.50599 0.586439 0 1.30979 0C2.03315 0 2.61959 0.50599 2.61959 1.13011V1.21796C2.61959 1.84209 2.03315 2.34808 1.30979 2.34808Z" fill="#F40000"/>
</svg>
